<svg width="12" height="11" viewBox="0 0 12 11" fill="none" xmlns="http://www.w3.org/2000/svg">
<path d="M5.58756 0.601793C5.78617 0.312007 6.21383 0.312007 6.41244 0.601793L8.01551 2.94088C8.08053 3.03574 8.17626 3.10529 8.28657 3.13781L11.0065 3.93961C11.3435 4.03895 11.4757 4.44568 11.2614 4.72411L9.53223 6.97155C9.4621 7.06269 9.42553 7.17523 9.42869 7.29019L9.50665 10.1248C9.51631 10.476 9.17032 10.7274 8.83932 10.6097L6.16752 9.65957C6.05917 9.62104 5.94083 9.62104 5.83248 9.65957L3.16068 10.6097C2.82968 10.7274 2.48369 10.476 2.49335 10.1248L2.57131 7.29019C2.57447 7.17523 2.5379 7.06269 2.46777 6.97155L0.738551 4.72411C0.52432 4.44568 0.656475 4.03895 0.99345 3.93961L3.71343 3.13781C3.82374 3.10529 3.91947 3.03574 3.98449 2.94088L5.58756 0.601793Z" fill="#FF8000"/>
</svg>
